<svg xmlns="http://www.w3.org/2000/svg" viewBox="0 0 512 512">
  <defs>
    <linearGradient id="bg" x1="72" y1="48" x2="444" y2="464" gradientUnits="userSpaceOnUse">
      <stop offset="0" stop-color="#7d2f45"/>
      <stop offset="0.52" stop-color="#171416"/>
      <stop offset="1" stop-color="#b88a44"/>
    </linearGradient>
    <radialGradient id="glow" cx="50%" cy="42%" r="58%">
      <stop offset="0" stop-color="#ffd772" stop-opacity="0.72"/>
      <stop offset="0.45" stop-color="#ff4f83" stop-opacity="0.24"/>
      <stop offset="1" stop-color="#161416" stop-opacity="0"/>
    </radialGradient>
    <filter id="shadow" x="-30%" y="-30%" width="160%" height="160%">
      <feDropShadow dx="0" dy="18" stdDeviation="18" flood-color="#000000" flood-opacity="0.38"/>
    </filter>
  </defs>
  <rect width="512" height="512" rx="112" fill="url(#bg)"/>
  <circle cx="256" cy="228" r="188" fill="url(#glow)"/>
  <g filter="url(#shadow)">
    <path d="M256 118c-58 0-105 43-105 96 0 72 105 157 105 157s105-85 105-157c0-53-47-96-105-96z" fill="#fff7ed" opacity="0.92"/>
    <path d="M256 146c-40 0-73 30-73 68 0 47 49 99 73 122 24-23 73-75 73-122 0-38-33-68-73-68z" fill="#7d2f45"/>
    <path d="M231 199c0-16 12-29 27-29s27 13 27 29-12 29-27 29-27-13-27-29z" fill="#ffd772"/>
  </g>
  <text x="256" y="422" text-anchor="middle" font-family="Avenir Next, Inter, Arial, sans-serif" font-size="76" font-weight="800" fill="#fff7ed" letter-spacing="0">SP</text>
</svg>
